# AST/ASF file generated using VICON BodyLanguage
# -----------------------------------------------
:version 1.10
:name VICON
:units
  mass 1.0
  length 0.45
  angle deg
:documentation
   .ast/.asf automatically generated from VICON data using
   VICON BodyBuilder and BodyLanguage model FoxedUp or BRILLIANT.MOD
:root
   order TX TY TZ RX RY RZ
   axis XYZ
   position 0 0 0  
   orientation 0 0 0 
:bonedata
  begin
     id 1 
     name lhipjoint
     direction 0.543289 -0.788407 0.288535 
     length 2.57127 
     axis 0 0 0  XYZ
  end
  begin
     id 2 
     name lfemur
     direction 0.34202 -0.939693 0  
     length 8.47298  
     axis 0 0 20  XYZ
    dof rx ry rz
    limits (-160.0 20.0)
           (-70.0 70.0)
           (-60.0 70.0)
  end
  begin
     id 3 
     name ltibia
     direction 0.34202 -0.939693 0   
     length 8.13367   
     axis 0 0 20   XYZ
    dof rx
    limits (-10.0 170.0)
  end
  begin
     id 4 
     name lfoot
     direction 0.114037 -0.313314 0.942778   
     length 2.67113   
     axis -90 7.62852e-016 20   XYZ
    dof rx rz
    limits (-45.0 90.0)
           (-70.0 20.0)
  end
  begin
     id 5 
     name ltoes
     direction 1.536e-011 -4.21847e-011 1   
     length 1.32217   
     axis -90 7.62852e-016 20   XYZ
    dof rx
    limits (-90.0 20.0)
  end
  begin
     id 6 
     name rhipjoint
     direction -0.571293 -0.770752 0.282074   
     length 2.63017  
     axis 0 0 0  XYZ 
  end
  begin
     id 7 
     name rfemur
     direction -0.34202 -0.939693 0   
     length 8.60885   
     axis 0 0 -20   XYZ
    dof rx ry rz
    limits (-160.0 20.0)
           (-70.0 70.0)
           (-70.0 60.0)
  end
  begin
     id 8 
     name rtibia
     direction -0.34202 -0.939693 0   
     length 8.07673   
     axis 0 0 -20   XYZ
    dof rx
    limits (-10.0 170.0)
 end
 begin
     id 9 
     name rfoot
     direction -0.121336 -0.333368 0.934956   
     length 2.81602  
     axis -90 -7.62852e-016 -20   XYZ
    dof rx rz
    limits (-45.0 90.0)
           (-20.0 70.0)
  end
  begin
     id 10 
     name rtoes
     direction -1.53491e-011 -4.21808e-011 1   
     length 1.38905   
     axis -90 -7.62852e-016 -20   XYZ
    dof rx
    limits (-90.0 20.0)
  end
  begin
     id 11 
     name lowerback
     direction 0.0136776 0.999869 -0.00861835   
     length 2.14087   
     axis 0 0 0   XYZ
    dof rx ry rz
    limits (-20.0 45.0)
           (-30.0 30.0)
           (-30.0 30.0)
  end
  begin
     id 12 
     name upperback
     direction -0.00789158 0.999804 0.0181308   
     length 2.14151   
     axis 0 0 0   XYZ
    dof rx ry rz
    limits (-20.0 45.0)
           (-30.0 30.0)
           (-30.0 30.0)
  end
  begin
     id 13 
     name thorax
     direction -0.0135231 0.999666 0.0220247   
     length 2.13644   
     axis 0 0 0   XYZ
    dof rx ry rz
    limits (-20.0 45.0)
           (-30.0 30.0)
           (-30.0 30.0)
  end
  begin
     id 14 
     name lowerneck
     direction -0.0392259 0.997317 0.0618018   
     length 1.65045   
     axis 0 0 0   XYZ
    dof rx ry rz
    limits (-20.0 45.0)
           (-30.0 30.0)
           (-30.0 30.0)
  end
  begin
     id 15 
     name upperneck
     direction 0.0765547 0.994276 -0.0745319   
     length 1.66045   
     axis 0 0 0   XYZ
    dof rx ry rz
    limits (-20.0 45.0)
           (-30.0 30.0)
           (-30.0 30.0)
  end
  begin
     id 16
     name head
     direction 0.0241564 0.999031 -0.036785  
     length 1.66594  
     axis 0 0 0   XYZ
    dof rx ry rz
    limits (-20.0 45.0)
           (-30.0 30.0)
           (-30.0 30.0)
  end
  begin
     id 17 
     name lclavicle
     direction 0.967398 0.249018 0.0461573  
     length 3.75176  
     axis 0 0 0   XYZ
    dof ry rz
    limits (-20.0 10.0)
           (0.0 20.0)
  end
  begin
     id 18 
     name lhumerus
     direction 1 -4.48963e-011 -3.05005e-027   
     length 5.93342   
     axis 180 -30 -90   XYZ
    dof rx ry rz
    limits (-60.0 90.0)
           (-90.0 90.0)
           (-90.0 90.0)
  end
  begin
     id 19
     name lradius
     direction 1 -4.48957e-011 1.07006e-026   
     length 3.94763   
     axis 180 -30 -90   XYZ
    dof rx
    limits (-10.0 170.0)
  end
  begin
     id 20
     name lwrist
     direction 1 -4.48978e-011 1.92422e-026   
     length 1.97382   
     axis -1.18182e-014 90 90   XYZ
    dof ry
    limits (-180.0 0.0)
 end
  begin
     id 21 
     name lhand
     direction 1 -4.48931e-011 3.84844e-026   
     length 0.560187   
     axis -2.45563e-014 90 90   XYZ
    dof rx rz
    limits (-90.0 90.0)
           (-45.0 45.0)
  end
  begin
     id 22 
     name lfingers
     direction 1 -4.48952e-011 7.69687e-026   
     length 0.451637   
     axis -4.91126e-014 90 90   XYZ
    dof rx
    limits (0.0 90.0)
  end
  begin
     id 23
     name lthumb
     direction 0.707107 -6.34901e-011 0.707107   
     length 0.648463   
     axis -90 45 2.85299e-015   XYZ
    dof rx rz
    limits (-45.0 45.0)
           (-45.0 45.0)
  end
  begin
     id 24 
     name rclavicle
     direction -0.965946 0.258716 0.00371831   
     length 3.63667  
     axis 0 0 0   XYZ 
    dof ry rz
    limits (-10.0 20.0)
           (-20.0 0.0)
  end
  begin
     id 25 
     name rhumerus
     direction -1 -4.48966e-011 -1.78361e-028  
     length 6.28647   
     axis 180 30 90   XYZ
    dof rx ry rz
    limits (-90.0 60.0)
           (-90.0 90.0)
           (-90.0 90.0)
  end
  begin
     id 26 
     name rradius
     direction -1 -4.48961e-011 1.05248e-026   
     length 3.81645   
     axis 180 30 90   XYZ
    dof rx
    limits (-10.0 170.0)
  end
  begin
     id 27 
     name rwrist
     direction -1 -4.48979e-011 1.92422e-026   
     length 1.90822   
     axis -1.18182e-014 -90 -90   XYZ
    dof ry
    limits (-180.0 0.0)
  end
  begin
     id 28
     name rhand
     direction -1 -4.48937e-011 3.84844e-026   
     length 0.646185   
     axis -2.45563e-014 -90 -90   XYZ
    dof rx rz
    limits (-90.0 90.0)
           (-45.0 45.0)
  end
  begin
     id 29
     name rfingers
     direction -1 -4.48953e-011 7.69687e-026   
     length 0.520971   
     axis -4.91126e-014 -90 -90   XYZ
    dof rx
    limits (0.0 90.0)
  end
  begin
     id 30
     name rthumb
     direction -0.707107 -6.3494e-011 0.707107   
     length 0.748013   
     axis -90 -45 -2.85299e-015   XYZ
    dof rx rz
    limits (-45.0 45.0)
           (-45.0 45.0)
  end
:hierarchy
  begin
    root lhipjoint rhipjoint lowerback
    lhipjoint lfemur
    lfemur ltibia
    ltibia lfoot
    lfoot ltoes
    rhipjoint rfemur
    rfemur rtibia
    rtibia rfoot
    rfoot rtoes
    lowerback upperback
    upperback thorax
    thorax lowerneck lclavicle rclavicle
    lowerneck upperneck
    upperneck head
    lclavicle lhumerus
    lhumerus lradius
    lradius lwrist
    lwrist lhand lthumb
    lhand lfingers
    rclavicle rhumerus
    rhumerus rradius
    rradius rwrist
    rwrist rhand rthumb
    rhand rfingers
  end

#!OML:ASF H:\HAZMAT1\Patient Classification 1\Patient 3\Session 1\dancer.ASF
:FULLY-SPECIFIED
:DEGREES
45
upperback -2.326360 0.344708 3.183660
rfoot -27.662701 -30.445999
lradius 21.098499
lthumb 4.205990 62.517399
rradius 96.362900
lwrist -10.691400
rhand -5.040260 16.995701
rhumerus 19.716700 56.184601 -29.742599
lowerneck 0.027531 -11.515200 -8.381520
lhand -22.209999 32.579201
ltibia 71.253098
head 2.813670 -7.947190 3.275960
rwrist -43.502201
lfingers 7.125020
rtoes 13.851800
lowerback -1.026680 0.373580 5.175420
rfingers 7.125020
lclavicle 0.000000 0.000000
upperneck 4.392980 -15.843600 7.229350
rfemur -77.456497 -30.076200 32.381699
thorax -1.801340 0.024817 0.375493
rclavicle 0.000000 0.000000
rtibia 70.057198
lfoot -11.535100 2.931170
lhumerus -57.920502 23.673300 -10.904700
rthumb 20.754700 -11.914400
root -17.867500 17.379999 46.210300 24.559401 -166.735001 350.899994
ltoes -49.891300
lfemur -26.132799 -20.455700 -16.494499
46
upperback -2.889400 -3.259680 5.778910
rfoot -36.673401 -25.232500
lradius 21.312901
lthumb 5.272550 59.312401
rradius 96.616600
lwrist -8.728310
rhand -1.509510 17.088200
rhumerus 20.843300 65.426903 -40.398201
lowerneck -1.123830 -12.214400 -10.646300
lhand -21.105400 29.398001
ltibia 82.348900
head 4.251760 -8.146750 4.183180
rwrist -42.134102
lfingers 7.125020
rtoes 8.765960
lowerback -1.331000 -2.795660 5.068730
rfingers 7.125020
lclavicle -0.000000 0.000000
upperneck 7.454450 -16.687901 11.197900
rfemur -62.882198 -6.457390 25.266500
thorax -2.196870 -1.509150 3.146030
rclavicle -0.000000 0.000000
rtibia 73.104103
lfoot -20.473499 9.011040
lhumerus -55.476398 22.167900 -4.620300
rthumb 24.143801 -11.412500
root -17.177799 17.306900 42.875198 22.916500 -196.531998 355.533997
ltoes -49.340599
lfemur -33.292702 -5.498410 -18.590000
47
upperback -2.211380 -6.069890 6.255240
rfoot -34.354401 -8.950940
lradius 22.857800
lthumb 6.310680 55.762001
rradius 95.104599
lwrist -9.176200
rhand 0.929216 16.952900
rhumerus 32.653500 68.665703 -42.640999
lowerneck 0.540807 -13.171700 -12.081200
lhand -20.030199 25.875999
ltibia 63.426601
head 4.302270 -8.978870 4.385990
rwrist -42.750599
lfingers 7.125020
rtoes -1.142070
lowerback 2.188120 -4.921290 3.453730
rfingers 7.125020
lclavicle 0.000000 -0.000000
upperneck 7.506750 -18.166800 11.335200
rfemur -46.126900 12.740200 9.203750
thorax -3.194820 -2.958650 4.844820
rclavicle 0.000000 -0.000000
rtibia 61.739399
lfoot -16.584700 5.923910
lhumerus -42.128399 20.435699 1.460830
rthumb 26.480101 -11.216900
root -17.224800 17.986300 38.724899 18.152300 -242.494995 356.868988
ltoes 6.232280
lfemur -56.677601 -17.500799 10.320100
48
upperback -1.504720 -3.710900 5.336070
rfoot -32.735901 -30.861300
lradius 20.345501
lthumb 5.823750 56.526001
rradius 90.180801
lwrist -14.534600
rhand 4.661160 16.556400
rhumerus 43.220901 63.369202 -47.220798
lowerneck 0.801558 -13.810400 -12.260300
lhand -20.534500 26.625999
ltibia 38.853600
head 4.282830 -9.444830 3.547070
rwrist -47.487301
lfingers 7.125020
rtoes -1.388920
lowerback 0.816583 -2.897150 1.654940
rfingers 7.125020
lclavicle -0.000000 -0.000000
upperneck 8.113170 -18.900600 8.616560
rfemur -56.914501 27.828501 -18.778601
thorax -1.757140 -1.827540 4.660260
rclavicle -0.000000 -0.000000
rtibia 31.826300
lfoot -24.456600 1.280790
lhumerus -49.395699 26.680201 -5.611690
rthumb 30.046700 -11.022400
root -16.577700 19.196100 32.909000 -157.376007 -223.587997 178.501999
ltoes -5.174740
lfemur -28.298300 -19.859501 -6.446440
49
upperback -1.930360 -2.926330 4.406400
rfoot -33.471600 -46.240898
lradius 21.933001
lthumb 5.680160 57.920399
rradius 67.598900
lwrist -9.277720
rhand 6.508630 16.633301
rhumerus 31.483700 48.067299 -67.775597
lowerneck 2.694630 -13.662700 -12.219000
lhand -20.683300 28.016500
ltibia 41.221001
head 2.745280 -9.421950 3.268520
rwrist -48.901699
lfingers 7.125020
rtoes 25.480000
lowerback 0.845593 -2.278930 1.654590
rfingers 7.125020
lclavicle 0.000000 -0.000000
upperneck 4.771170 -18.667601 6.626290
rfemur -34.245499 9.670640 -1.606940
thorax -2.311490 -1.455780 3.693530
rclavicle 0.000000 -0.000000
rtibia 35.810001
lfoot -32.120201 25.113600
lhumerus -39.551998 27.149599 -6.093390
rthumb 31.807800 -10.611000
root -16.066401 19.160400 29.003000 -159.682007 -175.613998 176.033005
ltoes 19.416800
lfemur -31.667200 -8.239990 -21.628201
50
upperback -1.722350 -1.518240 4.054920
rfoot -19.173300 -49.679100
lradius 22.694799
lthumb 6.106560 58.770500
rradius 38.278099
lwrist -6.821650
rhand 5.223820 13.181300
rhumerus 12.649300 22.937401 -80.222702
lowerneck 1.798610 -11.434200 -10.581300
lhand -20.241600 28.878500
ltibia 46.256302
head 2.786050 -7.888740 2.143230
rwrist -40.759399
lfingers 7.125020
rtoes 38.255501
lowerback 0.144480 -1.167550 1.322300
rfingers 7.125020
lclavicle 0.000000 -0.000000
upperneck 6.156660 -15.432700 2.402990
rfemur -16.307501 1.192180 -2.255900
thorax -1.773760 -0.762770 3.455170
rclavicle 0.000000 -0.000000
rtibia 31.394100
lfoot -26.074800 0.940633
lhumerus -30.491899 29.052401 -7.111960
rthumb 30.583401 -14.298800
root -16.101999 19.014601 26.827200 -162.279007 -135.822006 169.942993
ltoes 15.228800
lfemur -33.110901 -18.918699 -15.616500
51
upperback -2.626780 -2.806870 1.734520
rfoot -45.045601 -42.444199
lradius 21.587700
lthumb 6.119860 59.545799
rradius 20.362301
lwrist -7.253100
rhand -9.884490 -12.233200
rhumerus -0.575567 -21.955900 -70.086899
lowerneck -4.007810 -3.770570 -3.191360
lhand -20.227800 29.654200
ltibia 51.165001
head 3.155190 -2.542600 -0.686693
rwrist -22.236799
lfingers 7.125020
rtoes 23.111200
lowerback -0.615242 -2.106590 0.519342
rfingers 7.125020
lclavicle -0.000000 0.000000
upperneck 7.661810 -4.641660 -3.245750
rfemur -9.276320 17.089701 -1.348820
thorax -2.287000 -1.407570 1.526990
rclavicle -0.000000 0.000000
rtibia 26.813601
lfoot -25.897600 5.782340
lhumerus -25.363300 32.767601 -6.275030
rthumb 16.094900 -41.584801
root -16.822701 18.647100 24.889700 -163.638000 -104.811996 167.716003
ltoes 17.594299
lfemur -28.105400 0.122932 -15.311800
52
upperback -3.175890 -4.689530 2.892190
rfoot -32.815399 -43.481300
lradius 19.814100
lthumb 6.851300 58.304600
rradius 20.445200
lwrist -9.040380
rhand -21.296700 -25.779499
rhumerus -18.924500 -50.036999 -40.727501
lowerneck -4.000060 2.676840 2.893400
lhand -19.470200 28.435400
ltibia 52.552700
head 1.604330 1.642330 -3.276570
rwrist -21.505301
lfingers 7.125020
rtoes 11.513400
lowerback -0.394465 -3.541460 3.261830
rfingers 7.125020
lclavicle -0.000000 -0.000000
upperneck 2.058570 3.630600 -8.829670
rfemur -20.551901 14.069400 0.751067
thorax -3.066010 -2.418040 1.266380
rclavicle -0.000000 -0.000000
rtibia 29.987600
lfoot -25.432100 6.746240
lhumerus -22.615000 35.217300 4.887750
rthumb 5.087880 -55.698399
root -17.125299 18.496901 23.380501 -106.505997 -91.749100 115.138000
ltoes 11.040400
lfemur -31.000401 13.842500 -12.552500
